<?xml version="1.0" standalone="no"?>
<!DOCTYPE svg PUBLIC "-//W3C//DTD SVG 20010904//EN"
 "http://www.w3.org/TR/2001/REC-SVG-20010904/DTD/svg10.dtd">
<svg version="1.0" xmlns="http://www.w3.org/2000/svg"
 width="7000.000000pt" height="5000.000000pt" viewBox="0 0 7000.000000 5000.000000"
 preserveAspectRatio="xMidYMid meet">

<g transform="translate(0.000000,5000.000000) scale(0.100000,-0.100000)"
fill="#000000" stroke="none">
<path d="M29230 40914 c-14 -2 -65 -9 -115 -15 -725 -87 -1406 -535 -1792
-1179 -175 -292 -282 -603 -328 -953 -13 -106 -15 -1676 -15 -15405 0 -13720
2 -15300 15 -15412 53 -423 216 -825 477 -1171 331 -440 810 -763 1343 -904
l90 -24 -2595 -1 -2596 0 -18 54 c-22 63 -85 151 -141 197 -65 52 -153 88
-286 115 -475 99 -926 344 -1181 640 l-69 81 -92 -29 c-172 -55 -527 -120
-817 -148 -63 -6 -131 -13 -150 -15 -19 -3 -57 -5 -84 -7 l-49 -2 7 -80 c23
-282 113 -695 171 -783 l15 -23 -2062 0 c-1135 0 -4358 -3 -7163 -6 -4396 -5
-5103 -8 -5122 -20 -36 -23 -56 -62 -56 -109 0 -48 20 -86 60 -112 26 -17
1298 -18 28078 -21 15427 -1 28070 0 28094 4 56 7 106 54 116 107 8 43 -16
101 -55 129 -24 18 -81 19 -1330 21 -718 1 -1523 3 -1789 5 l-483 2 38 28
c122 89 205 244 254 471 37 177 92 268 295 491 198 217 262 318 272 430 15
157 -97 366 -323 610 -49 52 -104 115 -123 138 l-34 43 40 42 c68 71 67 55 28
369 -304 2412 -757 4558 -1199 5671 -162 408 -286 639 -487 904 -280 369 -607
1076 -889 1923 -273 816 -421 1452 -445 1905 -7 147 -15 268 -20 335 -3 30 -7
91 -10 135 -19 249 -122 1317 -130 1343 -3 9 -26 1 -77 -27 -203 -111 -802
-341 -1149 -441 -338 -98 -699 -170 -1039 -207 -182 -19 -751 -25 -1015 -10
-141 8 -484 38 -650 57 -209 24 -505 50 -567 50 -60 0 -68 -2 -68 -19 0 -10
18 -239 40 -507 22 -269 82 -1024 135 -1679 52 -654 99 -1237 105 -1295 13
-127 139 -1724 255 -3225 158 -2051 233 -3099 255 -3585 35 -774 198 -2716
231 -2756 7 -9 32 -29 56 -45 24 -17 43 -38 43 -47 0 -9 -14 -46 -30 -81 -91
-192 -273 -358 -535 -489 -187 -93 -358 -149 -632 -206 -206 -43 -287 -80
-361 -161 -27 -30 -60 -79 -73 -110 l-23 -55 -3885 1 c-3867 0 -3886 0 -3811
20 251 64 543 195 752 335 373 251 655 573 849 969 113 232 184 453 227 706
16 99 17 895 17 15479 l0 15375 -23 128 c-120 661 -467 1217 -1000 1598 -315
226 -662 367 -1072 436 -100 17 -465 18 -7190 19 -3897 1 -7096 0 -7110 -2z
m3508 -916 c-14 -75 -3 -350 17 -422 39 -146 97 -253 194 -358 107 -116 219
-185 378 -235 l88 -28 2880 0 2880 0 85 23 c255 68 461 246 556 480 52 130 59
174 59 390 l0 202 1630 -2 1630 -3 109 -23 c305 -65 600 -207 816 -393 326
-280 527 -618 618 -1038 l27 -126 0 -14985 0 -14985 -23 -114 c-79 -389 -255
-709 -540 -982 -260 -250 -581 -412 -942 -475 -102 -18 -331 -19 -6895 -19
-6564 0 -6793 1 -6895 19 -362 63 -682 225 -943 476 -278 266 -449 571 -535
954 l-27 121 -3 14945 c-2 10729 0 14969 8 15030 70 545 365 1017 820 1312
161 105 362 193 540 237 203 50 157 49 1871 50 l1606 1 -9 -52z m22881 -26745
c172 -358 537 -1086 697 -1388 354 -672 1629 -2895 2267 -3955 205 -340 197
-329 222 -319 11 4 23 8 26 8 3 1 5 -189 4 -421 -2 -442 -5 -479 -51 -623 -28
-86 -102 -218 -151 -271 -85 -89 -135 -117 -304 -168 -141 -42 -206 -115 -197
-222 l3 -44 -2017 0 -2016 0 13 28 c21 41 43 134 56 237 12 93 15 619 4 654
-5 17 0 21 32 26 91 15 81 -1 150 246 82 293 246 945 322 1279 290 1282 479
2454 581 3600 6 69 13 148 15 175 7 75 33 435 40 555 3 58 8 119 10 135 2 17
6 82 10 145 3 63 8 129 10 145 2 17 7 84 10 150 3 66 8 134 10 150 2 17 7 89
11 160 4 72 8 137 10 145 1 8 3 22 4 30 1 8 23 -30 50 -85 26 -55 107 -223
179 -372z"/>
<path d="M36015 30113 c-83 -22 -122 -124 -75 -201 28 -46 68 -59 220 -71
1143 -92 2137 -879 2494 -1976 45 -139 90 -324 106 -440 7 -49 19 -103 27
-118 29 -59 119 -85 182 -53 45 24 65 63 64 126 -3 129 -88 476 -168 691 -388
1040 -1301 1803 -2390 1998 -173 30 -420 54 -460 44z"/>
<path d="M34042 29479 c-96 -20 -436 -350 -636 -616 -359 -479 -556 -992 -621
-1621 l-7 -63 133 3 133 3 18 135 c95 733 434 1365 990 1842 71 61 133 119
138 129 15 27 12 96 -5 129 -24 46 -86 72 -143 59z"/>
<path d="M35685 29294 c-808 -85 -1512 -570 -1879 -1293 -67 -133 -136 -305
-136 -342 0 -96 121 -161 204 -109 37 22 40 27 101 180 236 587 750 1048 1362
1224 734 210 1510 8 2053 -534 313 -314 532 -738 600 -1162 l13 -78 134 0 134
0 -6 48 c-61 445 -254 882 -543 1231 -300 361 -736 641 -1182 760 -220 59
-333 73 -585 76 -126 2 -248 1 -270 -1z"/>
<path d="M35797 28599 c-567 -41 -1084 -391 -1333 -904 -68 -141 -132 -351
-146 -480 l-3 -30 132 -3 132 -3 6 28 c37 183 85 315 160 448 143 250 390 470
652 579 142 59 360 105 501 106 29 0 66 7 83 15 85 45 92 187 11 229 -42 21
-78 24 -195 15z"/>
<path d="M35830 27850 c-205 -20 -394 -112 -537 -264 -56 -58 -72 -82 -78
-114 -13 -80 48 -152 128 -152 48 0 88 20 124 65 73 88 204 164 330 190 263
56 535 -81 662 -332 l31 -63 129 0 c125 0 129 -1 135 -22 4 -13 10 -100 13
-194 5 -168 5 -171 -16 -177 -12 -3 -21 -1 -21 4 0 5 5 9 10 9 6 0 10 17 9 38
0 30 -2 33 -9 17 l-9 -20 -1 20 c-1 11 -4 14 -7 8 -5 -14 -168 -19 -177 -5 -2
4 -6 59 -7 122 -2 73 -8 124 -17 140 l-14 25 8 -25 c4 -14 10 -148 13 -297 l6
-273 31 -31 c54 -54 148 -50 194 9 19 23 20 41 20 281 0 291 -12 389 -60 504
-148 356 -507 573 -890 537z m810 -1060 c-87 -5 -103 -4 -96 8 2 4 44 5 93 2
l88 -5 -85 -5z"/>
<path d="M37320 27392 c-19 -9 -45 -33 -58 -52 -20 -30 -23 -43 -18 -89 4 -29
9 -58 12 -62 3 -5 64 -9 136 -9 l130 0 -7 58 c-16 141 -96 204 -195 154z"/>
<path d="M33032 27145 c0 -16 2 -22 5 -12 2 9 2 23 0 30 -3 6 -5 -1 -5 -18z"/>
<path d="M34322 27150 c0 -14 2 -19 5 -12 2 6 2 18 0 25 -3 6 -5 1 -5 -13z"/>
<path d="M34552 27073 c-6 -54 -8 -113 -5 -130 3 -18 2 -50 -2 -70 -6 -32 -9
-35 -15 -18 -5 11 -9 14 -9 8 -1 -15 -22 -13 -33 2 -5 6 -8 5 -8 -2 0 -9 -23
-13 -80 -13 l-79 0 -4 138 c-1 75 -4 -615 -5 -1535 l-2 -1671 26 -31 c51 -61
141 -63 195 -5 l24 26 5 1696 c3 933 5 1698 4 1700 -1 1 -6 -42 -12 -95z m-7
-281 c-8 -10 -45 -9 -45 1 0 8 -3 8 -8 2 -4 -6 -40 -8 -92 -4 l-85 5 90 3 c50
2 93 3 98 2 4 0 7 5 7 12 0 8 4 7 10 -3 8 -12 10 -12 11 5 l0 20 8 -20 c5 -11
7 -21 6 -23z"/>
<path d="M37518 27000 c5 -168 5 -174 -13 -160 -21 18 -195 22 -195 5 0 -5 -5
-3 -10 5 -5 8 -11 58 -12 110 -9 393 -14 -543 -16 -3012 l-2 -2846 87 24 c49
14 107 29 131 35 l42 11 -1 2942 c-1 1617 -5 2968 -9 3001 -4 33 -5 -19 -2
-115z m-100 -202 l107 -2 -110 -5 c-60 -4 -113 -5 -117 -3 -4 1 -4 10 -1 19 4
11 8 13 11 5 2 -8 38 -13 110 -14z"/>
<path d="M38016 27150 c6 -18 16 -1476 14 -1914 0 -30 7 -45 34 -72 29 -29 41
-34 80 -34 26 0 60 7 76 15 63 33 60 -15 58 982 0 499 -3 892 -5 874 -3 -19
-12 -41 -21 -48 -16 -12 -16 -13 1 -7 16 6 18 1 15 -42 l-3 -49 -92 -3 c-98
-4 -100 -3 -94 45 1 6 -2 14 -7 17 -5 3 -7 -14 -5 -37 l3 -42 -16 32 c-12 25
-14 39 -6 61 7 20 6 39 -4 67 -7 22 -13 62 -12 90 1 28 -4 60 -11 70 -11 18
-12 18 -5 -5z m51 -342 c-3 -8 -6 -5 -6 6 -1 11 2 17 5 13 3 -3 4 -12 1 -19z
m198 3 c8 -14 -50 -23 -125 -19 -63 4 -63 4 18 6 47 1 82 6 82 12 0 13 17 13
25 1z"/>
<path d="M38263 27100 c0 -36 2 -50 4 -32 2 17 2 47 0 65 -2 17 -4 3 -4 -33z"/>
<path d="M37273 27105 c0 -27 2 -38 4 -22 2 15 2 37 0 50 -2 12 -4 0 -4 -28z"/>
<path d="M32780 25979 c0 -1125 1 -1155 20 -1186 10 -17 29 -37 41 -43 32 -18
104 -16 133 4 50 32 59 59 59 174 0 1156 -4 2184 -9 2179 -3 -3 -5 -61 -5
-130 l1 -124 -27 0 c-185 -2 -191 -3 -196 -20 -3 -10 -5 51 -5 135 0 85 -3
156 -6 160 -3 3 -6 -514 -6 -1149z m227 815 c-7 -7 -199 -5 -206 2 -2 2 44 4
104 4 60 0 105 -3 102 -6z"/>
<path d="M36726 26977 c3 -10 9 -15 12 -12 3 3 0 11 -7 18 -10 9 -11 8 -5 -6z"/>
<path d="M35871 26957 c-19 -6 -44 -25 -55 -40 -21 -28 -21 -31 -23 -1025 -2
-785 0 -1002 10 -1022 7 -13 28 -35 47 -48 42 -28 106 -26 149 5 54 41 53 18
49 1073 -3 912 -4 978 -21 1003 -35 54 -97 76 -156 54z m124 -27 c8 -7 13 -16
10 -20 -3 -5 -1 -11 5 -15 6 -4 6 -12 -1 -23 -8 -13 -28 -18 -95 -20 -82 -2
-90 1 -85 31 1 5 -3 6 -9 2 -5 -3 -7 0 -4 9 7 17 50 48 79 57 25 7 81 -5 100
-21z m-166 -86 c6 -14 8 -30 5 -36 -4 -7 24 -9 85 -7 50 2 91 1 91 -3 0 -5
-43 -8 -96 -8 -91 0 -95 1 -89 20 5 15 3 18 -9 14 -9 -3 -16 -1 -16 5 0 6 6
11 13 12 10 0 10 2 0 6 -15 5 -18 23 -5 23 5 0 14 -12 21 -26z m198 -14 c0
-28 -1 -29 -14 -10 -8 11 -11 25 -8 30 12 19 22 10 22 -20z"/>
<path d="M35910 26926 l-24 -14 32 2 c17 1 36 7 42 14 7 9 7 9 -2 2 -7 -5 -16
-10 -21 -10 -4 0 -5 5 -2 10 8 13 5 12 -25 -4z"/>
<path d="M35840 26910 c-18 -12 -2 -12 25 0 13 6 15 9 5 9 -8 0 -22 -4 -30 -9z"/>
<path d="M35973 26895 c0 -7 9 -13 19 -12 10 1 18 2 18 4 0 1 -8 7 -18 12 -14
7 -19 6 -19 -4z"/>
<path d="M35890 26890 c0 -5 9 -10 21 -10 11 0 17 5 14 10 -3 6 -13 10 -21 10
-8 0 -14 -4 -14 -10z"/>
<path d="M34493 26920 c0 -25 2 -35 4 -22 2 12 2 32 0 45 -2 12 -4 2 -4 -23z"/>
<path d="M35131 26237 c-19 -6 -44 -25 -55 -40 l-21 -28 -3 -2583 -2 -2583
107 -12 c60 -7 118 -15 131 -18 l22 -5 0 2578 c0 1738 -3 2591 -10 2616 -18
65 -99 101 -169 75z"/>
<path d="M33612 26190 c-18 -11 -37 -32 -42 -46 -7 -16 -13 -869 -17 -2353
l-6 -2327 115 -51 c64 -28 125 -54 136 -57 l20 -7 -5 2388 c-5 2006 -8 2392
-19 2415 -29 57 -120 76 -182 38z"/>
<path d="M38874 25931 c-81 -37 -74 164 -72 -2141 l3 -2052 125 80 125 80 3
1972 c2 1784 1 1975 -14 2005 -30 65 -101 88 -170 56z"/>
<path d="M36588 25215 c-59 -33 -55 61 -58 -1580 -2 -830 -2 -1522 -1 -1537 2
-39 46 -86 92 -98 51 -14 95 -1 135 41 l29 30 1 1307 c0 719 -2 1416 -5 1549
l-6 243 -27 26 c-33 34 -117 43 -160 19z"/>
<path d="M38091 23577 c-13 -6 -34 -25 -45 -40 -21 -28 -21 -30 -24 -1108 -1
-593 1 -1079 5 -1078 5 0 62 24 128 53 l120 53 3 1019 c3 953 2 1021 -15 1052
-9 19 -29 40 -44 48 -34 17 -96 18 -128 1z"/>
<path d="M32854 23270 c-11 -4 -33 -22 -47 -40 l-27 -32 -1 -574 c-1 -316 -2
-606 -3 -645 -1 -51 3 -74 14 -84 17 -15 239 -155 245 -155 3 0 5 323 5 718 0
676 -1 719 -18 752 -30 57 -108 85 -168 60z"/>
<path d="M35863 23166 c-18 -8 -42 -30 -53 -48 -20 -33 -20 -48 -20 -1105 l0
-1073 130 0 130 0 0 1066 c0 1162 2 1110 -55 1148 -35 23 -95 28 -132 12z"/>
<path d="M34363 22760 c-17 -10 -37 -29 -43 -40 -9 -16 -12 -232 -13 -783 l-2
-762 110 -32 c61 -17 121 -32 134 -32 l23 -1 -4 793 c-3 755 -4 793 -22 820
-38 57 -122 74 -183 37z"/>
<path d="M36589 21395 c-58 -32 -64 -54 -64 -245 l0 -175 46 3 c26 2 85 9 130
15 l84 12 3 150 c3 164 -3 190 -50 230 -34 29 -106 34 -149 10z"/>
<path d="M54180 33603 c-189 -7 -450 -26 -560 -39 -473 -56 -796 -218 -918
-460 -55 -108 -68 -279 -32 -419 40 -156 141 -321 228 -373 41 -24 57 -27 127
-26 96 2 164 17 395 89 296 92 376 109 525 109 121 1 134 -1 188 -26 74 -35
166 -123 222 -213 24 -38 75 -135 115 -215 91 -186 120 -220 186 -220 26 0 38
8 68 48 44 57 119 111 167 118 42 7 84 -22 105 -73 22 -52 28 -169 13 -253 -8
-41 -14 -111 -14 -155 0 -73 4 -87 38 -155 21 -41 64 -108 95 -149 l56 -74 69
74 c190 206 220 242 258 310 163 297 311 912 312 1294 1 138 -5 171 -47 266
-8 19 30 39 74 39 17 0 30 4 30 9 0 8 -58 26 -104 33 -15 2 -25 21 -41 75 -12
39 -34 92 -49 116 -30 53 -95 111 -139 127 l-31 10 31 -32 c31 -33 63 -88 63
-108 0 -5 -25 10 -56 35 -224 183 -705 266 -1374 238z"/>
<path d="M16895 31174 c-301 -27 -680 -157 -920 -315 -96 -64 -228 -195 -274
-272 -45 -77 -79 -164 -98 -250 -16 -75 -15 -142 6 -452 6 -77 10 -230 11
-340 1 -301 23 -523 67 -660 21 -68 70 -165 96 -194 29 -31 97 -81 112 -81 7
0 16 38 24 100 19 156 62 269 139 366 38 48 39 53 31 95 -24 126 -1 280 48
318 54 43 109 12 166 -93 48 -89 53 -90 137 -21 145 118 260 265 345 437 29
59 63 117 76 128 45 38 124 54 254 53 207 -2 466 -58 822 -178 105 -36 202
-65 215 -65 83 0 279 85 389 168 61 47 139 126 139 142 0 4 -52 53 -115 110
-70 61 -155 151 -214 224 -335 415 -723 675 -1126 754 -101 20 -256 32 -330
26z"/>
<path d="M15328 27607 c-363 -308 -704 -917 -928 -1653 -152 -499 -264 -1086
-310 -1614 -6 -69 -12 -141 -15 -160 -26 -235 -27 -1344 0 -1488 1 -10 6 -80
10 -157 4 -77 8 -151 10 -165 2 -14 6 -119 9 -235 4 -115 10 -250 13 -300 4
-49 7 -920 8 -1935 0 -1015 4 -1881 8 -1925 21 -211 39 -311 62 -361 43 -88
150 -145 336 -181 118 -22 595 -25 789 -5 445 47 927 129 1270 218 979 254
1803 567 2165 825 203 144 235 243 146 451 -87 206 -110 311 -119 541 -4 93
-6 170 -4 171 1 2 75 -19 165 -46 381 -115 904 -254 1130 -301 l118 -25 24 21
c94 84 175 338 193 605 l8 114 -71 39 c-38 22 -80 42 -92 45 -13 3 -23 11 -23
16 0 6 10 8 23 5 12 -3 95 -14 184 -23 158 -18 162 -18 183 1 31 28 77 130
100 219 25 99 41 322 32 440 l-7 88 -255 98 c-586 224 -1211 488 -1641 692
l-136 65 -7 154 c-46 1016 -138 2120 -232 2779 -96 674 -191 1020 -377 1384
-198 387 -494 742 -924 1110 l-172 147 -58 -11 c-107 -21 -318 -24 -449 -6
-280 37 -488 116 -881 337 -92 52 -141 73 -174 77 -43 4 -48 1 -111 -51z"/>
<path d="M24482 23113 c-13 -11 -41 -82 -75 -188 -31 -93 -227 -699 -437
-1345 -210 -646 -428 -1316 -484 -1489 l-101 -314 -290 7 c-159 3 -402 9 -540
12 -137 3 -245 2 -239 -3 38 -28 42 -81 14 -154 -12 -28 -18 -54 -15 -58 4 -3
253 -11 553 -18 518 -11 548 -11 572 6 26 19 30 30 249 706 60 187 173 536
251 775 78 239 199 613 270 830 71 217 185 569 254 781 69 213 126 396 126
408 0 28 -34 61 -64 61 -13 0 -33 -8 -44 -17z"/>
<path d="M20595 19789 c72 -28 148 -54 170 -56 37 -4 44 0 88 42 27 26 47 49
44 51 -2 2 -100 6 -218 9 l-214 6 130 -52z"/>
<path d="M21520 19809 c-105 -6 -160 -19 -160 -39 0 -18 51 -23 179 -17 142 6
518 51 456 54 -107 6 -382 7 -475 2z"/>
<path d="M18785 9959 c-184 -143 -354 -306 -424 -407 -23 -32 -23 -33 -8 -121
18 -104 3 -75 274 -561 460 -826 976 -1730 988 -1730 24 0 116 111 148 177 27
59 32 81 35 168 4 107 2 120 -63 345 -65 225 -77 323 -79 610 -1 276 9 362 61
540 14 47 27 92 30 101 3 12 -8 18 -49 28 -29 6 -89 26 -134 44 -318 129 -548
415 -660 820 -8 31 -18 57 -22 57 -4 -1 -47 -33 -97 -71z"/>
</g>
</svg>
