<?xml version="1.0" encoding="UTF-8"?>
<!DOCTYPE svg PUBLIC "-//W3C//DTD SVG 1.1//EN" "http://www.w3.org/Graphics/SVG/1.1/DTD/svg11.dtd">
<!-- Creator: CorelDRAW X7 -->
<svg xmlns="http://www.w3.org/2000/svg" xml:space="preserve" width="121.656mm" height="34.7586mm" version="1.1" style="shape-rendering:geometricPrecision; text-rendering:geometricPrecision; image-rendering:optimizeQuality; fill-rule:evenodd; clip-rule:evenodd"
viewBox="0 0 5783 1652"
 xmlns:xlink="http://www.w3.org/1999/xlink">
 <defs>
  <style type="text/css">
   <![CDATA[
    .fil0 {fill:none}
    .fil1 {fill:white}
    .fil2 {fill:white;fill-rule:nonzero}
   ]]>
  </style>
 </defs>
 <g id="Layer_x0020_1">
  <metadata id="CorelCorpID_0Corel-Layer"/>
  <rect class="fil0" width="5783" height="1652"/>
  <path class="fil1" d="M740 343c-109,1 -249,-6 -364,-9 -36,0 -28,-3 -47,18 -66,70 -256,276 -279,323l98 2c-12,34 -6,81 8,133 0,1 -1,1 -1,2 -1,0 -2,0 -2,1l-7 4 18 85c75,-4 61,-22 46,-85l-15 -2c-20,-87 -47,-145 14,-214 45,-50 117,-88 185,-75 -78,12 -187,57 -207,152l74 1 17 52c46,-90 131,-159 238,-180 37,-7 75,-8 110,-4 -10,-10 -26,-22 -31,-30l145 -174z"/>
  <path class="fil1" d="M592 552c139,0 259,83 312,203l-46 23c-45,-102 -147,-174 -266,-174 -104,0 -195,55 -247,137l65 26 -24 47 -6 -3c-36,-16 -69,-31 -105,-48 52,-124 174,-211 317,-211zm219 533l-85 -36 37 -41c47,20 83,35 126,56 -59,103 -170,173 -297,173 -140,0 -260,-84 -313,-203l48 -20c46,101 147,171 265,171 87,0 166,-39 219,-100z"/>
  <path class="fil1" d="M592 672c71,0 135,34 175,87l1 -1 3 6c9,12 17,25 23,39 -13,6 -30,16 -43,23 0,0 0,-1 0,-1l-146 73 -138 -55 24 -45 114 46 119 -63c-32,-37 -80,-60 -132,-60 -96,0 -174,77 -174,173 0,96 78,174 174,174 57,0 108,-28 140,-71l47 17c-40,62 -109,103 -187,103 -123,0 -223,-100 -223,-223 0,-122 100,-222 223,-222z"/>
  <path class="fil2" d="M4397 764c49,0 89,15 119,45 30,29 45,73 45,133l0 227 -139 0 0 -205c0,-54 -22,-81 -66,-81 -24,0 -43,8 -57,23 -15,16 -22,39 -22,71l0 192 -140 0 0 -398 133 0 0 43c16,-16 35,-28 56,-37 22,-8 45,-13 71,-13z"/>
  <path id="1" class="fil2" d="M4923 1153c-11,7 -26,13 -43,17 -16,4 -34,6 -54,6 -51,0 -91,-13 -119,-38 -28,-26 -42,-64 -42,-114l0 -134 -58 0 0 -104 58 0 0 -104 139 0 0 104 91 0 0 104 -91 0 0 132c0,15 4,26 12,34 7,8 18,12 30,12 16,0 31,-4 43,-13l34 98z"/>
  <path id="2" class="fil2" d="M5110 819c14,-18 33,-32 55,-41 23,-9 49,-14 79,-14l0 126c-13,-1 -24,-2 -32,-2 -30,0 -53,8 -70,24 -17,16 -25,41 -25,74l0 183 -140 0 0 -398 133 0 0 48z"/>
  <path id="3" class="fil2" d="M5733 771l-172 414c-20,49 -45,84 -73,104 -29,19 -65,29 -106,29 -21,0 -42,-3 -64,-10 -21,-6 -38,-15 -52,-26l49 -97c8,7 17,13 28,17 11,4 22,6 34,6 13,0 24,-2 32,-8 9,-5 16,-14 22,-26l-170 -403 143 0 98 243 98 -243 133 0z"/>
  <path class="fil2" d="M1443 1180c-54,0 -103,-12 -146,-35 -42,-22 -76,-54 -101,-95 -24,-40 -36,-86 -36,-138 0,-51 12,-97 36,-138 25,-41 59,-72 101,-95 43,-23 92,-34 146,-34 47,0 89,8 127,25 37,16 69,40 94,72l-93 83c-33,-40 -74,-60 -121,-60 -28,0 -53,6 -75,19 -21,12 -38,29 -50,51 -12,23 -18,48 -18,77 0,29 6,55 18,77 12,22 29,39 50,52 22,12 47,18 75,18 47,0 88,-20 121,-60l93 84c-25,31 -57,55 -94,72 -38,16 -80,25 -127,25z"/>
  <path class="fil2" d="M1909 1176c-42,0 -81,-9 -115,-27 -35,-17 -61,-42 -81,-73 -19,-31 -29,-67 -29,-107 0,-39 10,-74 29,-105 20,-32 46,-56 80,-73 34,-18 73,-27 116,-27 43,0 82,9 116,27 34,17 61,41 80,72 19,31 29,67 29,106 0,40 -10,76 -29,107 -19,31 -46,56 -80,73 -34,18 -73,27 -116,27zm0 -111c25,0 45,-8 60,-25 16,-17 24,-41 24,-71 0,-29 -8,-52 -24,-69 -15,-16 -35,-25 -60,-25 -24,0 -44,9 -60,25 -16,17 -24,40 -24,69 0,30 8,54 24,71 16,17 36,25 60,25z"/>
  <polygon class="fil2" points="2199,624 2338,624 2338,1169 2199,1169 "/>
  <polygon class="fil2" points="2429,624 2568,624 2568,1169 2429,1169 "/>
  <path class="fil2" d="M3065 971c0,1 0,12 -2,34l-289 0c6,21 17,37 34,48 17,11 38,16 64,16 19,0 35,-2 49,-8 14,-5 28,-14 42,-26l74 76c-39,43 -95,65 -170,65 -46,0 -87,-9 -123,-27 -35,-17 -62,-42 -81,-73 -20,-31 -29,-67 -29,-107 0,-39 9,-74 28,-105 19,-31 45,-55 78,-73 33,-18 71,-27 112,-27 40,0 76,9 108,25 33,17 58,40 77,71 19,31 28,68 28,111zm-212 -107c-21,0 -39,6 -54,18 -14,12 -23,29 -27,50l163 0c-4,-21 -13,-38 -28,-50 -14,-12 -32,-18 -54,-18z"/>
  <path class="fil2" d="M3558 771l0 326c0,74 -20,129 -60,166 -40,37 -98,55 -173,55 -39,0 -76,-4 -110,-13 -35,-9 -64,-22 -88,-39l51 -97c16,13 37,23 61,31 25,7 49,11 73,11 37,0 64,-8 81,-24 17,-16 26,-40 26,-72l0 -13c-27,31 -66,47 -118,47 -36,0 -68,-8 -98,-24 -30,-16 -54,-39 -71,-68 -18,-29 -27,-63 -27,-101 0,-37 9,-71 27,-100 17,-29 41,-52 71,-68 30,-16 62,-24 98,-24 56,0 98,19 124,56l0 -49 133 0zm-224 267c25,0 45,-8 62,-23 16,-15 24,-35 24,-59 0,-24 -8,-43 -24,-58 -16,-15 -37,-23 -62,-23 -26,0 -47,8 -63,23 -17,15 -25,34 -25,58 0,24 9,44 25,59 17,15 38,23 63,23z"/>
  <path class="fil2" d="M4055 971c0,1 -1,12 -2,34l-290 0c6,21 18,37 35,48 17,11 38,16 63,16 19,0 36,-2 50,-8 14,-5 28,-14 42,-26l73 76c-38,43 -95,65 -169,65 -47,0 -88,-9 -123,-27 -35,-17 -63,-42 -82,-73 -19,-31 -29,-67 -29,-107 0,-39 10,-74 28,-105 19,-31 45,-55 79,-73 33,-18 70,-27 112,-27 40,0 76,9 108,25 32,17 58,40 77,71 19,31 28,68 28,111zm-212 -107c-22,0 -40,6 -54,18 -15,12 -24,29 -28,50l163 0c-4,-21 -13,-38 -27,-50 -15,-12 -33,-18 -54,-18z"/>
  <path class="fil2" d="M3648 726l0 -85c29,-33 68,-50 116,-50 17,0 34,2 53,7 18,5 44,15 78,30 20,8 34,13 44,16 9,2 19,4 29,4 18,0 37,-6 56,-17 20,-11 37,-24 52,-41l0 89c-18,17 -36,29 -54,36 -19,8 -39,11 -62,11 -17,0 -33,-2 -48,-5 -15,-4 -39,-14 -72,-29 -33,-15 -61,-22 -83,-22 -18,0 -35,4 -51,11 -15,8 -35,23 -58,45z"/>
 </g>
</svg>
